<svg xmlns="http://www.w3.org/2000/svg" viewBox="0 0 1000 454.1"><defs><style>.cls-1{fill:#00b4ff;}</style></defs><g id="Layer_2" data-name="Layer 2"><g id="Layer_1-2" data-name="Layer 1"><path class="cls-1" d="M611.1,359.63c-.07,6.27,3.21,7.56,3.58,11.52v33.34l-.6.37a34.22,34.22,0,0,0-2.94,2.23,7.14,7.14,0,0,1,.09,1.09c0,.44-.07.92-.13,1.56l-.19,1.18H557.47l-.41-.7a34.74,34.74,0,0,0-2.19-3.21l-17.64-1.89a35.51,35.51,0,0,1-13.52,8.9l-.21.07h-.23c-13.43,0-20.94.64-28.68.64-3.57.67-13.25,6.53-20.68,6.62h-.58l-.4-.44a13,13,0,0,1-3.59-9.18c0-2.63.55-4.86.55-6V391.55l.59-.4c1.53-1.06,2.34-1.41,3.26-2.6a6.94,6.94,0,0,0,1-4.11,25.92,25.92,0,0,0-1.25-7.08l-.33-1,.83-.59c3.26-2.31,5.17-3.17,6.67-6.19a11.36,11.36,0,0,0,.81-4.57,32.17,32.17,0,0,0-.89-6.94l-.27-1,.79-.52a11.82,11.82,0,0,0,3.23-2.58,6.39,6.39,0,0,0,.94-3.76,23.57,23.57,0,0,0-1.14-6.49l-.06-.25v-.21c.22-2,2.62-5.55,3.6-9a40.12,40.12,0,0,0,1.23-10.64,103.59,103.59,0,0,0-1.29-14.91c.06-3.44-2-4.18-3.48-8.16-2.66-7.55-3.49-16.73-3.49-25.62a194.59,194.59,0,0,1,3.49-34.83l21.26-56.45c-.15-.78-2.15-1.33-3.47-4a5.73,5.73,0,0,1-.42-2c0-1.29.32-2,.32-3.3v-.56l.42-.4s5-5.09,4.92-10.53c0-1.94-.05-3-.05-4.11,0-.56,0-1.1.05-1.84.81-4.16,9.55-14.83,10.64-24.92a38.42,38.42,0,0,0,.2-4.42c0-3.07-.2-5.91-.2-6,.27-3.42,14.6-36.4,24.86-46.65V62.33l.59-.39c.72-.42,3.15-2.43,3-3.51v-.08c0-1-.11-.4-1.93-2.55H525.5l-.37-.71a15.1,15.1,0,0,0-2.44-3.54,7.56,7.56,0,0,0-5.6-1.9c-4.65,0-9.71,2.19-12.09,2.3-.67-.24-3.36,2-5.62,7.32s-4.67,13-6.36,23.19c-3.34,21.28-6.86,24.16-11.41,24.25-.75,0-1.36-.09-1.92,0-1.54.07-2.61.07-4.59,3.15l-.88,1.42L473,110.14c-1.56-1.41-3.6-3.31-4.25-3.71l-.9-.62.36-1A21.6,21.6,0,0,0,470,96.92c.07-3.74-1.75-5.73-1.83-9.89.16-3.32,3.23-6.25,5.33-8.26v-66l1.27-.08c1.16-.09,3.93-.09,10.85-.09,13.79,0,43.94.09,109,.09h.79l.42.67c2.16,3.56,2.27,3.33,2.4,3.27s1-.12,2-.12a8,8,0,0,1,.81,0l1.2.17V21.3l-.33.39c-3.15,3.56-4.35,16.09-14.69,26.5a49.46,49.46,0,0,1,.46,6.67,23.05,23.05,0,0,1-.57,5.66c-1.76,6.82-3.6,8-10.54,14.53a43.49,43.49,0,0,1,.56,6.67,20.27,20.27,0,0,1-.69,5.71c-2.46,6.11-6.82,3.36-7,10.38,0,0-2,13.52-3.77,22.1s-6.2,13.45-6.14,20a23.74,23.74,0,0,0,.3,3.3L558.69,178l-.54.4c-5.18,3.08-4.24,23-13.6,33v12.14l-.09.21c-2.86,7.55-8.32,7.11-10.56,16.84V280.2l-10.65,30.64c.1,1.15.42,5.51.42,10.22a59.44,59.44,0,0,1-.46,8.05c-1.44,9.73-7.87,21.58-11.1,27.08-.82,1.3-1.21,2-1.58,2.57a6.38,6.38,0,0,1,.07.87c-.07,3.91-2.85,10.52-3.37,11.83-.24,2.53-2.17,6.05-3.21,8,1.35,1.33,1.75,1.83,2.75,1.79.18.11,1.14-.89,2.36-3.15l.64-1.11,1.13.57a13.82,13.82,0,0,0,6.15,1.38c4,0,8.13-1.49,13.39-1.49,1.43-.26,1.63-1.23,2-4,.35-2.53.72-6.07,3.47-9,5.34-5.64,17.17-6.84,19.73-8.87,14.4-10,20.37-5.34,29.79-20.69l.88-1.44,1.23,1.14a31.73,31.73,0,0,1,3.25,3.49h17.86l.42.67c1.81,3.12,5.46,5.33,5.57,10.32-.72,3.67-3.48,2.44-3.58,10.53m90.26-71.77c0,19.48-.38,38.52-1.55,43.28l-.1.5-.44.31c-1.88,1.09-4.53,9.21-7.11,17.73-2.67,8.33-5.55,17.25-10.1,22V392l-.54.42c-4.09,2.5-4.75,18.07-10.08,24.36v12.66l-.6.44a24,24,0,0,0-2.94,2.34v16.42l-.57.44c-3,2-2.69,3.89-6.15,4.06a2.14,2.14,0,0,1-1.81-1,9.42,9.42,0,0,0-1.94.88l-2,1.11.05-22.08-10.72-35V386.52c.65-7.92-17.46-14-17.73-30.72v-.54l.36-.4c0-.1,21.69-23.24,22.69-54.74v-.06c.59-2.1-9.14-9.07-19.48-14.54-9.84-5.57-19.92-10.49-23.2-13.77H601l3,9V300c4.74,1.26,7.74,7.08,10.73,7.41a2.13,2.13,0,0,1,1.84,2c-.53,3.15-4.81,5.86-5.53,10.21l-.17,1.18-1.23-.09S598.75,320,589.9,320c-4.44,0-8.47.19-9.93.65-16.88,5.64-36.09,12.85-36.11,12.85l-1.06.42-.61-1c-4.59-7.74-.7-5.6-5-11.72l-.55-.82.57-.75c6.49-8.75,8-10.28,12.6-14.39.08-2.17.52-9.75,3.25-14.42,3.65-5.47,11.69-7,10.93-8.95.15-.4-.87-1.35-3-2.71l-.69-.48.11-.81s1.29-11.29,2.46-17.47a25.27,25.27,0,0,1,.94-3.65,35.36,35.36,0,0,1-1.72-9.78c0-2.57.46-5.24,2.18-7.28a16.25,16.25,0,0,1,3.25-2.63V221.66l.58-.39c2.53-2,2.8-2,3-4.64-.17-1.22.06-.62-1.09-1.29-1.19-.39-2.84-2-2.69-4.9a15.32,15.32,0,0,1,.27-2.75,25.32,25.32,0,0,0,.59-5.24c0-3.44-.92-5.69-.94-8.88a14.49,14.49,0,0,1,.77-4.68c1.71-5.46,4.43-7.74,6.76-12.2a52,52,0,0,0,4-20V156l.68-.4c8-4.13,3.26-22.13,9.49-36.44,3.14-6.8,5.41-13.25,9.73-17.39a9.12,9.12,0,0,0,.1-1.24c0-2.52-1.25-4.68-1.31-7.44a6,6,0,0,1,1.42-4,13.61,13.61,0,0,1,3.44-2.83C603,84,606.28,73,610,66.24c2.23-3.93,2.23-6.14,7-10.48V40.28l.57-.42c2.27-1.71,2.16-2,2.69-3.06s1.53-2.59,4.77-4.66l.25-.16.31,0c3.3-.4,3.72-3.3,3.76-8.06,0-1.29,0-2.65,0-4,0-4.9.81-11,7.68-11,11.91.58,10.49,20,11.89,21.92,9.49,20.76,12.09,17.44,12.53,22.66V64c-.1,9,12.85,42.43,13,42.6l11.18,44c1.11,1,2,1.79,3.07,2.53l.62.37V169c2.88,2.76,3.8,4.95,3.8,6.85,0,1.52-.48,2.54-.44,3.19s.23,1.68,3.15,3.85l.57.4v20.87l-1,.2c0,.28,0,.65,0,1.07-.08,7.65,3.7,35,4.72,38.11l.27.17.08.64c.66,5.7,1,24.63,1,43.52m-88.91-53.13a25.79,25.79,0,0,1-.52,6.21l-.13.5c2-.19,4.18-.35,6.45-.35a48.11,48.11,0,0,1,10.39,1.08c10.35,2.25,16.06,9.39,22.88,11.47.79.05,1.55.05,2.25.05h.77c.13-4.88.53-22.85.53-37.13,0-7.91-.14-14.79-.5-17.42-2.26-2.59-2.09-7.51-2.76-12.9-.51-5.65-1.56-11.53-3.94-13.57-4.17-4-9.68-1.88-14.69-6.95-2.71-3-4.92-7.83-6.44-11.94l-.56,16,0,.67-.57.37c-2.46,1.75-3,4.49-4,7.41-.73,2.56-2.35,5.49-6.18,6.15-.16,4.28-.52,18.65-3.54,23.15a33.36,33.36,0,0,0-.31,5.18c0,6.49.85,15.56.85,22m-146.88,63.7-1.5.42c-5.46,1.25-2.94,5.67-7.53,10.52-.64,1-1.13,7.85-1.05,15.68,0,15.85,1.17,37.3,1.22,37.32l.06,1.44h-1.44c-1.42-.17-11.3,3.73-13,7l-.42.64H401.31l-.39-.64c-2.27-3.69-2.34-3.59-2.56-3.47-.48-.06-1.86.28-4.28.28-4.38.08-5.47,1.52-6.85,3.25-1.18,1.74-2.66,4.4-6.6,4.4h-.13c-.09-.06-8-1.48-11.89-5.71H341l-.4-.65c-1.88-3.26-3.6-3-3.73-6.51.39-1.77,1.25-2,2.42-3.48,1-1,2.06-2.09,2.89-2.84V333l.57-.39c3.32-2.45,3.08-2.23,3.08-2.87s-.09-1.39-.11-2.73c-.05,0,0-.08-.15-.44a14.27,14.27,0,0,0-.55-1.42c-.46-1.14-1.1-2.6-1.83-4.08-1.38-2.93-3.38-6.08-4-6.41l-1.14-.81.81-1.09a10.46,10.46,0,0,0,2.23-6.3A11,11,0,0,0,338.9,300l-.27-.31,0-.36a36.22,36.22,0,0,1-.42-5.7c0-11.26,4-24.44,4-31.18v-.71l0-.73.59-.44c3.56-2,2.36-13.64,6.67-22.55,3.93-7.66,12.59-17.5,12.44-17.25,1.17-2.13-.33-13.25,15-29.81.81-3.93,7.22-35.61,13.42-45.18.7-.88,2.5-2,4.85-3.83,1.57-1.2,3.13-2.33,3.9-2.91.34-2,2.4-7.78,14.21-18.71a51.66,51.66,0,0,1-1.75-12.46,25.84,25.84,0,0,1,2-10.72l.16-.34.28-.18c7.65-5.47,12.24-18,24.29-29.23v-24l-39.05-.39c-5.84,5.51-21.27,6.1-21.38,26.48V70.9h-1.4c-1.2,0-4.77,1.09-7.65,2.91s-5.24,4.31-5.16,6.27v28.81c-.16,2.8-2.27,5.8-7.3,14.15l-.87,1.42-1.21-1.13c-2.57-2.32-3.4-4.51-3.36-6.28,0-1.35.31-2.36.28-3.08,0-.94-.2-1.93-3-4l-.5-.32-.09-.59s-1-7.41-1.91-12c-.39-2.71-.59-5.32-1.05-5.3l-.89-.59.37-1s3.3-8.78,3.3-16.68c0-4-.86-7.56-3-9.71a20.28,20.28,0,0,0-3.35-2.71l-.61-.41V26.83l.29-.36s3.4-4.65,3.3-7.89l0-.7-.21-1.55h1.56c50.15,0,54.76.42,104,.42h1.36V36.36c-.31,3,3.23,3.5,3.54,8.61V109.9l-.48.41c-3.31,2.83-4.37,7.66-4.35,12.16a38.31,38.31,0,0,0,1.23,9.47l.31.94-.81.54c-10.37,7.22-15.66,36-21.89,43.4v16.7l-.83.38s-14.37,6.18-17,13.62a18.43,18.43,0,0,0-.92,6.38,49.42,49.42,0,0,0,1,9.14l.23,1.11-1,.44C398,229,379.1,281.74,379.48,284.77v9.6l-1.48.14.77.71-.11.16a12.38,12.38,0,0,0-.66,1.33c-.54,1.2-1.26,3-2.09,5.21-1.66,4.4-3.79,10.34-6,16.46-4.2,11.49-8.55,23.4-11.43,27.83,1.94,2.79,2.09,2.77,2.22,2.67.35,0,1.45-.22,3.19-.22,3.15.11,4.46-1.77,18.08-8.53,2.94-1,6.43,1,16.86-3.82,1.64-.47,5.86-8.38,11-15.79,5-7.13,11.55-14.32,20.34-15,.54-3.73,2.8-11.41,6.49-15l1.27-1.21.85,1.49a24.46,24.46,0,0,0,1.88,2.86c11.29-5.23,6.28-10.76,12.16-17.91l.39-.48h10l-.07,1.42s-.05,1.41-.05,3.5c0,4.7.32,13.25,1.86,16.84Zm-303,23.86c0,4.31,2.48,12.9,2.48,21.07a30,30,0,0,1-.46,5.62c-1.38,7.28-6,17.58-6.1,17.84,0,0-7.35,10.59-10.23,17.91-3.5,8.81-4.94,24.31-4.94,24.31l-.07.81-.72.35S127.77,417,119.64,423c-7.28,5.34-14.65,10-16.4,14.94l-.27.8-.79.11s-17.46,2.47-22.59,4.48c-.7.24-1,.39-1,.44a4.72,4.72,0,0,1-3.43,2.12c-4.07-.77-5-5.47-7.76-5.14-1.06,0-2.79.63-5.25,3-1.75,3.7-7.09,3.81-12.94,4a147.8,147.8,0,0,1-21.56-2,9.64,9.64,0,0,1-4.24.67c-3.85,0-8.83-.83-11.58-.8a4.48,4.48,0,0,0-1.39.11L9.74,447l-1.25-1.15c-1.57-1.4-3.61-3.31-4.26-3.68L2,440.68l2.53-.92s8.24-3.23,10.76-5.65l0,0,0,0c.06-.11.15-.33.29-.59.23-.58.54-1.44.89-2.5.66-2.11,1.47-5,2.3-8.3,1.7-6.53,3.47-14.54,4.63-20.55,0-20.8,1.24-31.46,1.24-42.37a131.9,131.9,0,0,0-1.22-17.92c-.33-2.56-1.44-21.74-3.12-35.62,0-22.45,1.29-45.49,1.29-59.11,0-2.58-.07-4.86-.18-6.67l-.05-1.31,1.3-.11a5.15,5.15,0,0,0,4.29-3.15l-.81-17.77-2.74-5.74.38-26c.48-3.78,3.4-7.67,3.36-7.62.31-.42.61-2.91.57-5.42,0-3.44-.3-7.15-.42-8.22l-3.89-6.41V68.34l.57-.42c3.38-2.44,3.32-2.44,3.26-2.9s-.26-2.06-.26-4.61.15-3.83.15-4.21l-.09,0a18.36,18.36,0,0,1-2-2.09c-.74.06-1.88.13-3,.19a1.49,1.49,0,0,1-1.25.86,2.64,2.64,0,0,1-1.55-.77h-.12A3.64,3.64,0,0,1,18,54.32c-.06-.1-.79.07-1.06-1.35a1.86,1.86,0,0,1,.5-1.09,23.26,23.26,0,0,1-1.78-2L3.86,38.61c-1.55-2.56-2.32-3.11-2.6-3.28S-.29,33.82.06,33c0-.72,0-1.75,0-3.7,0-3.39-.16-4.3.74-5.6a15.61,15.61,0,0,0,3-3.75l.4-.69H23.18c2.56-1.79,8-2.31,14.2-3.23,6.66-.83,13.52-1.33,15.84-1.33L72,15.31c18.92,0,25.89-1.84,35.86-1.86a99,99,0,0,1,16.21,1.46L125,15l.22.87c1.4,5.51,6.8,7.85,9.45,10.12a17.53,17.53,0,0,1,11.3,2.52c11.85,8.07,18.3,27.42,18.36,37.6s2.3,19.73,2.32,27.33c0,4.46-.86,8.42-3.49,11l-13.19,24.69c-4.94,9.27-16.68,23.41-20.66,28.13a10.69,10.69,0,0,0,4,3.57,30.79,30.79,0,0,0,12.14,3.75A5.29,5.29,0,0,1,150,170.1c-.06,4.69-3.69,9.89-4.09,10.39-.06,0-.29.35-.29,1.08a7.36,7.36,0,0,0,.92,3.25,2.88,2.88,0,0,0,1.31,1.38s.15.06.59-.59l.88-1.42,1.2,1.18c5.47,5.36,6.17,6.86,6.3,8.32.11.48-1-.46,3.3,2.85l.75.55-.21.89a116.4,116.4,0,0,0-2.94,24.27c0,6.14.73,12.33,2.84,17.1,1,2.92,6.95,4.45,7.52,8.94A4.08,4.08,0,0,1,167,251c0,1.29,0,4.69,0,8.34,0,2.35,0,4.75,0,6.82,0,.48,0,.92,0,1.4,0,11.2,2.08,21.89,2.08,31.66,0,7.66-1.31,14.8-6.06,20.95a3.68,3.68,0,0,0-.42,2.14m-48.65-245c.1-.4-.25-1.17.78-1.71L119.84,72c-5.86-2-11,1.57-15.89-8.49l-1.63,0L86.61,65.69l1-2.23a3.77,3.77,0,0,0,.28-1.17,12.48,12.48,0,0,1-1.33.61,14.17,14.17,0,0,0-.78,5c0,1.62-.94,3.19-3.53,4.61v67.88a11.63,11.63,0,0,1,3.63-.63H86A7.11,7.11,0,0,1,89.82,141c7.06-2.12,4.09-19.46,24.23-21.86,0-1.79-.11-4.69-.11-7.92.26-8,0-17.79,3.47-21.64-.88-2.48-3.41-9.53-3.49-12.26m2.9,241.85c.09-2.39,1.33-4.5,1.25-6a2.75,2.75,0,0,0-1.54-2.52l-1.75-1.06,1.67-1.19a3.13,3.13,0,0,0,1.33-2.84c.13-4.17-4.67-11.55-4.78-18.5a10.63,10.63,0,0,1,4.24-8.74c-.13-8.33-1.36-9.43-2.54-10.69-1.51-1.45-3.41-3.54-3.28-11,.11-3.89,3.54-11,3.48-15.09,0-1.52-.37-2.16-1-2.46l-1.19-.67.59-1.17a8,8,0,0,0,.92-3.78c0-4.4-3.37-8.2-3.39-8.2L108.89,223l2.88-.14a3.9,3.9,0,0,0,.88-.13c-.14-.86-2.57-3.48-2.78-6a2.37,2.37,0,0,1,.94-2,1.59,1.59,0,0,0,.52-1.28c.26-2.8-5.71-8.42-5.57-8.29-6.8-3.72-14.6-11.22-14.7-11.3l-8.76-9.05c.1,4.61.26,13,.26,20.63,0,5.57-.08,10.76-.37,13.91l0,.42-.27.32c-1.31,1.58-1.94,4.9-1.92,8.61a76.27,76.27,0,0,0,2.19,16.07l.08.31-3.75,18.32-.69.28a3.9,3.9,0,0,0-2.69,3.65l0,.44a4.07,4.07,0,0,0,2.73,3.94l.86.34v67l-.36.41c-1.85,2-3,2.46-3.21,4.11a24.37,24.37,0,0,1-.54,2.73c-.24.36,0,.77-.57,1.19.09,3.44.19,11.35.19,28.29,0,0,.29,8.72.48,12.41l.36.33a1.27,1.27,0,0,1,.31.88c-.27,1.6-2.06,4.44-4,8.26-.91,1.71-1.83,3.39-2.56,4.66a49.25,49.25,0,0,0,9.49-2.06l8.28-7.5.46,0c6-.11,13.52-12.75,18.55-16.59,5.09-4.17,2.77-18.61,5-30.39l.11-.52.33-.25h0a4.21,4.21,0,0,1,.31-.65c.23-.59.56-1.44.9-2.42.69-2,1.48-4.73,2.27-7.51,1.5-5.51,2.84-11.64,2.82-13.29v0a4.4,4.4,0,0,1-.44-1.92M849.68,380a10.5,10.5,0,0,1,1.35,5.17,17.58,17.58,0,0,1-1.46,6.55c-2,4.48-.7,5.75-9.2,47l-.31,1.48-1.4-.42c-.16-.14-12.93-3.83-16.2-6.9-18.89-18.38-23.85-19.44-31.81-19.47h-5.1l-.32,0-1.08.11-.37-.94a3.63,3.63,0,0,1-.21-1.33c.1-6.41,10.62-30.39,12.52-40.69.85-4.31,1.47-22.34,1.47-34.54a111.87,111.87,0,0,0-.39-11.52v-.16c0-1.83-2.19-17-5.69-31.63-3.22-14.66-8.87-29.22-12.59-29.51l-1.18-.31.15-1.22c1.07-8.47,3.39-20,3.37-24.51a3.1,3.1,0,0,0-.09-1.29c-5.23-9.93-15.76-29.69-21.84-32.4a40.15,40.15,0,0,1,.41,4.85c0,3.41-1,6.67-4.22,13.47-1.42,2.84-3.49,5.75-3.43,7.89l0,.31.06.37-.13.29v.5c0,9.33,9.12,83.82,9.14,90.79v.15l.09.83-.75.44-.24.27a5.1,5.1,0,0,0-.7,1,5.46,5.46,0,0,0-1,2.84l0,.31c-.21.8,2.65,2.8,3.09,6.29.35,4.37.71,9.51.71,14.76,0,7.61-.69,15.39-3.19,21.42.46,7.83,3.73,27.37,3.73,36.62a17.62,17.62,0,0,1-.23,3.27l0,.29-.19.27c-1.23,1.82-1.8,1.88-3.17,2.78a49.31,49.31,0,0,1,.56,7.07c0,4.73-.7,11.85-3.36,23.25l-1.06,4.5L753.92,444a94.57,94.57,0,0,0-30.28-42.34C713.35,393,705,390.43,704.32,385.17c.17-.21,12.41-44.06,17.86-49.24a12.18,12.18,0,0,0,.76-5.16,73.52,73.52,0,0,0-.85-9.81,22.22,22.22,0,0,0-3-2.41l-.63-.43,0-.79c0-.75,0-12.12,0-26.72,0-27.74,0-67.55,0-71.7-1.31-2.42-.63-6.07-1.31-7.11l0,0-.54-.36-1.71-15.19c-1.48-2.16-2.4-6.25-3-6.31l-.62-.4,0-.67s-.08-3.79-.08-7.53c0-1.65,0-3.32.08-4.65-.76-1.31-.78-2.86-1.13-4.75a29.2,29.2,0,0,0-1-5.26l0-.09-.64-.44.06-.79v-1.19c0-2.31-.26-7.49-1.68-10.39-1.39-1.84-1-4.4-1.37-7.8a40.94,40.94,0,0,0-.71-7.11l-.44-.29-.19-18.3c-2.93-2.92-3.69-4.59-3.69-6.11,0-.6.11-1,.08-1.12s.09-.61-2.93-2.8l-.48-.35-.07-.57a143.41,143.41,0,0,1-.83-16.48,144,144,0,0,1,.83-16.53l0-.45.33-.33c5.86-5.74,22.17-13.91,33-29-2.75-1-10-2.9-11.53-3.19a5.24,5.24,0,0,0-.61.73,5.21,5.21,0,0,1-2.61,2.07,12.91,12.91,0,0,1-3.8,1A6.71,6.71,0,0,1,708.51,46l-.65-.37,0-.74c-.27-5.6-6.59-12.7-13.19-18.21-6.08-5.19-11.72-8.76-13.6-10.35l-13-2.81.25-2.72,51.42-1.41c4.63-2.15,5.59-2.48,9-2.42,3.48-.19,4.2,1.34,6,3.83h18.73l.21.38a8.84,8.84,0,0,0,.86.32c.79.33,1.92.73,3.27,1.16,2.72.94,6.3,2.07,9.87,3.22,7,2.21,13.92,4.28,13.87,4.32.88,0,2.06,0,3.4,0a30.48,30.48,0,0,1,4.3.26c6.15.82,11.7,4.83,16.21,8.53,4.21,3.72,8.22,7.08,8.45,6.8h.88l18.16,38.37c.57,1.69.64,4.55.64,8,0,6.59-.5,14.66-.5,14.66l-.09.67-.5.38a14.72,14.72,0,0,0-1.34,3.5,19.71,19.71,0,0,1-1.65,4.39c.06,2,.08,4.23.08,6.34,0,4.57-.08,8.61-.15,8.94-6.65,26.15-18.95,47.15-41.67,48,0,3.19.1,5.13.1,6.44,0,2.76-.73,3.33-2.25,4.78.33,0,.62,0,.92,0,2.67,0,4.92-1,7.9-1,4.22,0,8.83,2.37,16.48,11.62,5.11,2.33,3.84,8.61,4.57,11,.21.9.37,1,.63,1.05a43.41,43.41,0,0,1,5.25,2.16,3,3,0,0,1,1.68,2.61,8.93,8.93,0,0,0,0,1.22,9.06,9.06,0,0,0,1.15,4.06c1.07,2.73,1.42,11,2.75,11.9,1.42,2.66,1.46,10.82,1.86,19.51.19,8.32,1,17.4,1.46,17.48v0c.92.81.71,1.57,1.06,2.56.21,1.16.4,2.51.71,3.85.51,2.84,1.6,4.55,2.26,4.42a3.43,3.43,0,0,0,1.46-.6l1.23-.78.67,1.26c1.79,3.5,6.23,38.84,6.76,41.65l.08.57-.28.48c-.87.89-2.18,11.37-2.18,13,.24.4,1.48.86,3.63,1.38l.54.13.29.48c1.35,2.27,4.59,9.34,4.78,13l.16.51-.39.56a6,6,0,0,0-1.4,3.63c-.05,1.92,1.35,5,1.35,11.87a93.21,93.21,0,0,1-2.23,18.5l.17.23c.19.33.49.79.82,1.36M784.82,125.44a47.59,47.59,0,0,1,.78-7.78L786,116l.81.38a11.24,11.24,0,0,0,.48-1.19,9.46,9.46,0,0,1,1.31-2.82l.05-7.43a17.18,17.18,0,0,0,.41-4.14,29,29,0,0,0-3.73-13.92c0-.06-5.42-7.65-11.83-15.26s-14.3-15.17-17.34-14.9c-.81,0-1.53,0-2.23,0h-.74v105c1,.08,2.6.17,4.21.17a21.11,21.11,0,0,0,3.94-.28c5.78-1,11.89-5.23,13.36-7.17,3.27-4,7.92-20.29,10.32-26.24a17.92,17.92,0,0,1-.15-2.67m199.87,42.38c0,7.73-.3,14.36-1.39,17.57l-.15.41-.36.27c-1,.34-2.71,6.47-4.86,9.2-.08.81-.1,1.71-.1,2.61,0,4.24.6,9.26.6,14.14,0,4.26-.44,8.41-2.28,11.87a36.74,36.74,0,0,1-8.31,12.19l-2.3,17.5c-3.34,8.61-1.33,10.31-2.61,12.85.23,3.34,2,30,2,50,0,8.79-.34,16.22-1.42,20.42-2.43,5.62-2.74,11.76-2.74,18.26,0,1.75,0,3.51,0,5.3,0,6.74-.26,13.76-3,20.45l-3.73,20c-3.1,8.59-3.17,10.45-7.37,15.54-1.87,3.86-2.68,5-3.79,5.8a9.39,9.39,0,0,0-2.94,2.42c-1.57,4.11-8.83,5.25-17.18,7.92-8.86,2.43-19,5-23.92,7.66a4,4,0,0,1-1,.13c-3.76-.23-8.62-4.55-10.39-4.32l-.23.05c-1.5,2.71-5.45,3.28-10.09,4.39A82,82,0,0,1,862.93,442a8.6,8.6,0,0,1-3.66-.49l-1.61-.86,1.31-1.29A40.73,40.73,0,0,0,870.33,415c0-.54,0-1.15,0-1.79,0-8.15-4.15-19.43-4.18-19.43l-.45-1.25,1.22-.47c5.09-1.84,15.79-6.85,15-8.75a3.29,3.29,0,0,0-.26-1.58l-.15,0-.35,0a2.7,2.7,0,0,1-2.82-1.57l-4.14-10.22-7.23-16.68,6.56-65c-8.18-8.93-15.76-34.53-16-37V240.61c.3-3.05-3.22-3.51-3.54-8.54,0,0-.86-12.78-.86-22.52,0-4.22.09-7.64.63-9.79a19.22,19.22,0,0,0-2.71-2.17l-.67-.44L852,172.39c-.79-1.44-.83-3.27-1.31-5.61a44.88,44.88,0,0,0-1.25-6.47l.05-.15-.64-.43V87.3l.64-.42a35.38,35.38,0,0,0,2.93-2.38V56.56l.61-.42a29.07,29.07,0,0,0,2.93-2.36V33.89C852.28,30.39,825.52,5,824.27,3.44L822.5,1.21H843l.42.69a24.44,24.44,0,0,0,2.15,3.17h12l.23,1.1c-.25,3.53,16.85,5.55,25,14.23h11.69l.41.67a37.44,37.44,0,0,0,3.9,5.09h11.67l.41.69A25.52,25.52,0,0,0,913,30H928.2l.39.67a22.51,22.51,0,0,0,2.15,3.17h16.51l.41.66c5.3,8.66,15.66,14.29,17.82,18.36,12.07,25.34,9.61,27.55,13.75,30.19l.59.42-1,36.66c.88,1.38,1.24,3.41,2,5.84a37.56,37.56,0,0,0,2,6.07l.41.29,0,.7s1.32,19.35,1.32,34.79m-53.8,60.29c0-9.86,5.15-14.1,7-15.26.63-3.68,3.19-20.95,8.39-25.58V152.12c-2.6-2.28-3.73-7.08-5-11.92-1.23-5.09-2.34-10.6-2.73-11-4.11-6.11-12.69-8.24-13.52-17.73-8.45-.92-9.6-8.25-12.89-7.57-6.78,0-10.25-.53-15.38-.53-1.61,0-3.38,0-5.44.18l-1.42,13.3,1,4.59s1.5,38.62,1.5,53.09c0,1.27,0,2.28,0,3.11l.08.08c.38.69.79,1.56,1.16,2.41.78,1.75,1.49,3.43,1.53,3.43l.06.27v.26c-.28,4.29,4.35,21.42,6.39,21.84l.73.39-.52,169.56c5.26-6.42,17.06-22.84,17-39.3v-2.21c4-13.6,8.37-18.15,9.7-25.89l0-.32c.06-4.25-.06-69.65,2.47-78.29,0-.6-.07-1.18-.07-1.75m-603,146.61-2.2-.88a13,13,0,0,0-5.21-1.14c-.72,0-1.51.07-2.45.07h-.72l-.26-.35-.42-.06c-.77,0-2.45.3-5.4,1.78l-.72.37-.65-.46c-1-.8-7.11-1.52-13.91-1.46-10.56,0-23.87,1.23-27.44,2.69-5.05,4.9-6.4,6.12-8.28,6.34h-.07a2.12,2.12,0,0,1-1.46-.63v0l0,0,0,0c-2.27-.68-2.41-2.48-4.9-4l-1.2-.86.89-1.12c10.24-12.81,4.53-8.93,16.27-16.8,2.76-8.38,3.09-37.25,3-46v-3.34l.6-.37c3.24-2.44,3.06-2.44,3.11-3.3,0-.61-.12-1.69-.16-3.25.31-2.57-3.43-4.7-3.55-11.52.12-4.77,1.61-11.68,4.71-15.14l-1.16-151.58.52-.42a26.56,26.56,0,0,1,2.58-1.83c.27-.16.44-.27.53-.31l-.05-.42c.11-.59-.94-.79-2.94-1.94l-.58-.42-4.57-77.15c-.85-3.37-3.9-4.48-7.49-5.54-2.91-.87-6.65-1.65-7.55-5-3.32,0-4.65-.24-5.81-1.48a15.35,15.35,0,0,0-4.46-4.53l-1.16-.83.87-1.11c1.32-1.71,3-3.9,3.46-4.61l.51-1,1,.29c3.57,1,20,1.73,35.46,1.71,14.21,0,28.29-.63,31-1.68l1-.42.6,1a46.21,46.21,0,0,0,4.3,5.56L324,24v7.3l-1,.26c-8.66,2.35-18,10.32-17.85,17,.12,5.26.68,4.89,1.06,5.2,1,.35,2.75,2,2.46,6.32a7.27,7.27,0,0,1-3.17,6.32c-1.44,1.17-2.07,1.46-2.14,3.27,0,11.42,1.62,42.17,1.62,68.24,0,12.61-.4,24.15-1.51,32,1.2,1.25,1.16,3,1.59,4.88a30,30,0,0,0,1.15,5.59l.1.22.55.32,1.94,11.27-.72.5a15.61,15.61,0,0,0-3.3,2.67c-2,2.16-2.62,5.4-2.62,8.65s.63,6.54.65,8.53a33.22,33.22,0,0,0-.37,4.11,43.85,43.85,0,0,0,1.18,9.18c.42,2.3,0,7.06.5,9.58.13.83.29,1,.36,1l.56.31.09.66a46.41,46.41,0,0,1,.46,6.86,64.9,64.9,0,0,1-.46,7.94l-.09.61-.52.35a18.27,18.27,0,0,0-3.32,2.69c-2.38,2.47-3,4.26-3,6.34-.09,4.22,3.41,10.08,3.43,20.42V284c.3,2,3.76,12.07,4.87,13.36l.56.41-1.91,27-.59.37a11.52,11.52,0,0,0-3.21,2.63,6.24,6.24,0,0,0-1.51,4.15c0,2.2,1,4.89,1.75,8.11,2.93,12.09,1.92,5.35,24.11,21.35l.45.33ZM453.7,452H404l-.38-.7a35,35,0,0,0-2.17-3.15H389.79l-.4-.65c-2.09-3.31-2.9-3.35-3.63-3.39-.46,0-1.15.16-2.09.2-1.77,0-3.81-.88-6.19-3.83H343.39c-5.57-.32-7-3.47-8-5.12-7.07-.56-51.38-.65-74.81-.65H245.15l-.41-.64c-1.25-2.62-10.1-5.26-10.37-5.11H221.45c-2.58,1.69-20.66,13.46-22.17,18.29l-.44,1.06-1.08-.2a154,154,0,0,0-21-1.88c-4.77,0-9.14.54-10.93,1.71l-1.23.76L164,447.5a8.91,8.91,0,0,0-3.14-3.37l-1.21-.88.9-1.11c2.53-3.25,2.29-1.38,3.28-6.11l.12-.67,10.41-5.53c4.07-4,3.5-2.27,12.53-10.49V402.88l.61-.4c.92-.54,3-1.77,3-3.65,0-1.48-1-2.27-3-3.69l-.59-.41V365.48l.61-.42a29.26,29.26,0,0,0,3-2.37V350.15l.56-.42c3.32-2.42,3.06-2.21,3.06-2.86,0-.48-.09-1.4-.09-2.71,0-4.62-3.38-7.26-6.51-9.47l-.59-.41-.12-48.82.86-.35c2.39-1.15,1.56-.72,2.77-2.69a94.48,94.48,0,0,1-.84-12.73,83.4,83.4,0,0,1,.92-13.14l.08-.59.48-.33a29.34,29.34,0,0,0,2.95-2.33V214.78l.62-.39c.8-.42,4.07-5,3.93-8.38v-.61a11.78,11.78,0,0,0-3.93-7l-.62-.4V144.15a21.1,21.1,0,0,0-2.95-2.37l-.58-.39V112.11l.56-.41c2.76-2,3.95-3.78,6.58-6.23.18-2,.74-9.57.74-16.33a48.33,48.33,0,0,0-.66-9.21,27.48,27.48,0,0,0-3.07-2.45l-1.23-.85.92-1.13c1.55-1.86,6-13.62,5.92-17v-.27c-.83-9.89-6-19.61-6.15-19.78-.14-1.31-4.27-2.19-7.07-2.06l-1.42,0-.29.57-1.25-.7C179.84,33.14,185.37,31,166.11,17L165,16.11l.89-1.11c2.53-3.22,2.28-1.38,3.26-6.13l.21-1.09h6.34l.42.68a22.48,22.48,0,0,0,2.15,3.14h28.5l.4.66c4.06,6.56,6.58,7.37,8.19,7.37,1.19,0,2.23-.56,3.81-.61a3.46,3.46,0,0,1,2.1.81s11.11,13.75,15.72,17l.57.39v36l-.59.41c-2.56,2-2.85,2-3,4.64v.21l0,.09c0,.24.31,2.72,6.55,7.23l.56.4V103l-.6.44a21.18,21.18,0,0,0-2.92,2.31V181.3c3.19,2.82,5,3,6.92,6.74,1.69,3.52,2,12.76,2.09,24.26,0,22.8-1.93,53.19-1.93,53.19l0,.69-.54.38a22.42,22.42,0,0,0-3,2.35v25.64c1.07.9,2,1.69,3,2.38l.46.31.08.57a49.36,49.36,0,0,1,.33,7c0,6-.3,13.41-.3,13.43l0,1.09-1.09.18c-4.35.7-4,3.56-5.82,9,2.69,3.83,3.46,3.2,3.4,6.74v1.14c.28,4.3-.73,4.89-3.52,7.35v16.39l-.59.44a24,24,0,0,0-3,2.32v24.13l-.59.42c-2.27,1.66-2.18,2.36-3,5a4.54,4.54,0,0,0-.25,1.18c-1,.21,3.69.26,3.88,10.48,6.51.14,11.35.94,17.38.94A71.46,71.46,0,0,0,262,404.3c3-4.55,4.41-5.05,10.21-8.72a7.44,7.44,0,0,1,1.64-.2c6.05.1,16.94,5.5,29,5.48a31.65,31.65,0,0,0,17.29-4.76c.77-2.21,3-2.32,5.93-3.09a117.45,117.45,0,0,1,13.31-1.46c10.93-.7,25.57-.94,40.43-.94,31.64,0,64.33,1.11,64.37,1.11l1.3,0v45.44l0,0c.12.21.27.56.44,1,.37.85.95,2,1.6,3.32a88.22,88.22,0,0,0,4.78,8.46ZM1000,24.59C1000,29,997.83,35,983.12,35s-17.07-6-17.07-10.43V10.43C966.05,6.09,968.37,0,983.12,0S1000,6.09,1000,10.43Zm-3-14.43c0-3.36-2.3-7.36-13.91-7.36s-14.06,4-14.06,7.36v14.7c0,3.36,2.4,7.45,14.06,7.45s13.91-4,13.91-7.38ZM978.66,20.53v7.21c0,.4-.15.73-.59.73H976.3c-.5,0-.65-.33-.65-.73V7.93c0-.48.15-.71.65-.71h7.59c6.12,0,7.62,2.94,7.62,5.7v1.93a5.26,5.26,0,0,1-4.08,5.26l3.31,7.63c.1.4-.21.73-.67.73h-1.85c-.4,0-.55-.33-.7-.73l-3.06-7.21h-5.8Zm0-10.91v8.51h4.9c3.46,0,4.92-1.69,4.92-3.46V13.08c0-1.77-1.38-3.46-4.92-3.46Z"/></g></g></svg>