<svg width="48" height="48" viewBox="0 0 48 48" fill="none" xmlns="http://www.w3.org/2000/svg">
	<path d="M21.9281 29.6727C21.9281 32.0537 20.1314 33.2437 16.5381 33.2437H2V15H17.6725C20.4147 15 21.7857 16.1791 21.7857 18.5359V20.763C21.7857 22.5545 20.7337 23.5798 18.6299 23.8394C20.8284 24.1223 21.9276 25.2895 21.9276 27.3397V29.6727H21.9281ZM17.8506 21.0104V19.2783C17.8506 18.4063 17.2003 17.97 15.9001 17.97H6.18414V22.3186H15.9001C17.2003 22.3186 17.8506 21.8823 17.8506 21.0104ZM17.9563 28.3294V26.9504C17.9563 26.2674 17.7966 25.8252 17.4776 25.6244C17.1586 25.4241 16.6328 25.3237 15.9001 25.3237H6.18414V29.9556H15.9001C16.6328 29.9556 17.1586 29.8557 17.4776 29.6554C17.7966 29.4551 17.9563 29.0129 17.9563 28.3294Z" fill="white"/>
	<path d="M45.9995 28.9303C45.9995 30.6273 45.6741 31.7708 45.0238 32.3599C44.3736 32.9489 43.186 33.2437 41.4603 33.2437H27.9862C26.2605 33.2437 25.0724 32.9489 24.4221 32.3599C23.7718 31.7708 23.4474 30.6273 23.4474 28.9303V19.3134C23.4474 17.6164 23.7718 16.4729 24.4221 15.8838C25.0724 15.2948 26.2605 15 27.9862 15H41.4607C43.1865 15 44.374 15.2948 45.0243 15.8838C45.6746 16.4729 46 17.6164 46 19.3134V28.9303H45.9995ZM41.744 29.8142V18.2529H27.7025V29.8142H41.744Z" fill="white"/>
</svg>
